<svg width="150" height="151" viewBox="0 0 150 151" xmlns="http://www.w3.org/2000/svg"><title>icon-call</title><g fill="none" fill-rule="evenodd"><path d="M75 .688c-41.421 0-75 33.579-75 75 0 15.676 4.812 30.227 13.036 42.262l-9.851 29.553 29.554-9.85c12.034 8.223 26.585 13.035 42.261 13.035 41.421 0 75-33.579 75-75s-33.579-75-75-75z" fill="#FFF"/><path d="M110.695 97.38c-5.65-5.65-11.702-10.407-11.702-10.407l-8.816 8.817-35.279-35.279 8.817-8.816s-4.756-6.052-10.406-11.702-11.701-10.406-11.701-10.406-10.565 9.719-11.275 17.427c-.951 10.318 9.97 29.077 27.117 46.224 17.147 17.147 35.906 28.068 46.224 27.117 7.708-.71 17.427-11.274 17.427-11.274s-4.756-6.051-10.406-11.702z" fill="#45A4CD"/></g></svg>