<svg width="130" height="130" viewBox="0 0 130 130" xmlns="http://www.w3.org/2000/svg" xmlns:xlink="http://www.w3.org/1999/xlink"><title>img-icon-tick</title><defs><path id="a" d="M0 0h93v80H0z"/></defs><g fill="none" fill-rule="evenodd"><path fill="#FFF" d="M65 118.255L54.832 129.2l-6.289-13.551-13.052 7.266-1.794-14.83-14.659 2.877 2.878-14.66L7.085 94.51l7.266-13.052-13.55-6.289L11.744 65 .8 54.832l13.551-6.289-7.266-13.052 14.83-1.794-2.877-14.659 14.66 2.878L35.49 7.085l13.052 7.266 6.29-13.55L65 11.744 75.168.8l6.289 13.551 13.052-7.266 1.794 14.83 14.659-2.877-2.878 14.66 14.831 1.793-7.266 13.052 13.55 6.289L118.256 65 129.2 75.168l-13.551 6.289 7.266 13.052-14.83 1.794 2.877 14.659-14.66-2.878-1.793 14.831-13.052-7.266-6.289 13.55z"/><g transform="translate(30 17)"><mask id="b" fill="#fff"><use xlink:href="#a"/></mask><path d="M.725 49.584c6.723 2.635 24.357 10.93 39.156 29.963.6.772 1.815.513 2.027-.443 2.337-10.54 13.684-52.456 50.561-76.976 1.156-.768.249-2.55-1.04-2.037-14.644 5.82-41.69 20.623-55.406 53.82a1.134 1.134 0 0 1-1.584.585C29.982 52.102 12.94 43.656.8 47.412c-1.029.318-1.078 1.778-.075 2.172" fill="#318EBF" mask="url(#b)"/></g></g></svg>