<svg width="534" height="72" viewBox="0 0 534 72" xmlns="http://www.w3.org/2000/svg" xmlns:xlink="http://www.w3.org/1999/xlink"><title>logo-finestdental</title><defs><path id="a" d="M0 .97h30.545v70.715H0z"/><path id="c" d="M.646.297h58.527v64.115H.646z"/><path id="e" d="M.722.883h7.59v62.49H.721z"/><path id="g" d="M.713.495h53.295v52.49H.713z"/></defs><g fill="none" fill-rule="evenodd"><g transform="translate(0 -.931)"><mask id="b" fill="#fff"><use xlink:href="#a"/></mask><path d="M15.253 1.02c-4.17.46-7.416 1.67-9.856 3.706C3.514 6.282 1.689 9.414.94 12.333c-.943 3.687-.98 4.628-.923 32.94l.058 26.412H7.76l.057-20.994.039-20.975h17.676v-6.531H7.856v-3.227c0-4.725.576-7.106 2.17-9.124 2.672-3.4 9.703-4.245 18.484-2.227.96.23 1.786.421 1.883.441.153.02.21-6.588.077-6.741-.193-.174-2.518-.635-4.63-.923-2.21-.288-9.127-.518-10.587-.365" fill="#218EC9" mask="url(#b)"/></g><path d="M218.487 6.582l-3.708.039v26.525c0 29.466-.059 28.083 1.287 30.906 2.228 4.649 7.992 7.03 16.1 6.665 2.344-.115 6.379-.576 9.702-1.133l1.441-.25.058-3.323c.039-3.111.02-3.323-.288-3.227-.922.27-5.668 1.075-7.493 1.287-2.402.25-5.936.116-7.705-.307-2.402-.577-3.88-1.69-4.764-3.592l-.558-1.21-.057-16.385-.057-16.365h19.615v-6.53h-19.597V13.17c0-3.592-.058-6.55-.134-6.588-.096-.038-1.825-.038-3.842 0" fill="#218EC9"/><g transform="translate(247.26 7.38)"><mask id="d" fill="#fff"><use xlink:href="#c"/></mask><path d="M51.094 10.188c0 5.436-.058 9.892-.115 9.892-.078 0-.692-.422-1.404-.94-5.014-3.67-9.087-5.667-13.372-6.531-2.958-.596-6.819-.826-9.933-.596-7.646.576-13.295 2.862-17.81 7.204-3.727 3.591-6.13 8.085-7.34 13.733-.595 2.727-.633 8.086-.095 10.565 1.153 5.3 3.323 9.488 6.725 13.022 4.592 4.764 9.894 7.126 17.33 7.76 4.553.384 10.028-.211 13.871-1.478 3.209-1.096 6.993-3.285 10.682-6.243.922-.75 1.73-1.346 1.749-1.306.037.038.269 1.747.518 3.802l.442 3.747 3.267.057c1.786.018 3.342.018 3.458-.02.135-.057.135-.614.038-1.69-.095-.883-.23-14.924-.288-31.194L58.683.392 54.898.336 51.094.297v9.891zm-16.812 8.663c2.729.404 4.976 1.133 7.685 2.479 2.825 1.401 5.13 3.034 7.513 5.32l1.614 1.555v19.112l-1.788 1.69c-4.265 4.073-10.2 7.281-15.6 8.452-2.036.441-6.475.461-8.838.02C14.8 55.653 8.249 48.2 8.249 38.616c.02-6.223 1.921-11.14 5.706-14.713 4.707-4.437 12.181-6.3 20.327-5.052z" fill="#124B99" mask="url(#d)"/></g><path d="M430.77 33.78l.057 27.142.46 1.343c.577 1.748.98 2.498 1.923 3.708 1.633 2.055 4.707 3.668 8.241 4.34 3.748.711 7.954.577 15.025-.518l2.786-.423.058-3.322c.02-1.806.02-3.304 0-3.304-.039 0-1.345.25-2.94.577-5.706 1.132-10.144 1.19-13.391.19-2.344-.71-3.881-2.4-4.362-4.724-.153-.768-.211-5.782-.211-16.826V26.25h19.598v-6.529h-19.598V6.66h-7.686l.038 27.12z" fill="#124B99"/><g transform="translate(525.689 7.38)"><mask id="f" fill="#fff"><use xlink:href="#e"/></mask><path d="M.722.948v62.425h7.589V.948L4.527.89C2.432.871.722.89.722.948" fill="#124B99" mask="url(#f)"/></g><path d="M68.107 19.949c-5.436.768-10.548 3.131-15.523 7.126-.827.672-1.556 1.229-1.615 1.229-.057 0-.077-1.344-.057-2.977l.019-2.996-3.766-.039-3.765-.038v48.5l3.746-.039 3.746-.057v-34.44l1.884-1.787c4.226-4.013 8.972-6.684 13.91-7.778 2.017-.461 6.474-.461 8.51 0 4.958 1.113 7.974 4.091 8.954 8.816.346 1.652.365 2.824.365 18.516v16.768H92.2V53.41c0-14.156-.059-17.652-.288-19.15-1.192-7.837-6.168-12.639-14.66-14.118-2.42-.442-6.84-.519-9.146-.192m53.759-1.587c-12.719 1.46-21.595 9.662-23.44 21.608-.384 2.401-.25 7.741.212 9.893 1.172 5.32 3.4 9.47 7.013 13.06 5.494 5.513 13.064 8.145 22.383 7.799 10.585-.383 16.81-3.034 23.112-9.873l1.768-1.92-2.786-2.056c-1.536-1.113-2.901-2.073-3.035-2.112-.135-.038-.903.75-1.749 1.748-4.189 5.052-9.376 7.375-17.118 7.702-7.013.288-12.835-1.844-17.062-6.262-1.747-1.825-2.4-2.785-3.497-5.052-.883-1.805-1.824-5.05-1.824-6.223v-.652h24.304c13.372 0 24.304-.058 24.304-.154-.038-1.787-.48-6.05-.749-7.434-2.614-12.485-12.565-19.784-27.494-20.168-1.633-.038-3.592 0-4.342.096m6.878 6.55c6.072.653 11.009 3.227 14.103 7.337 1.382 1.844 2.593 4.494 3.054 6.607l.135.634h-20.001c-11.008 0-20-.038-20-.077 0-.364 1.249-3.783 1.748-4.763 3.67-7.28 11.22-10.776 20.961-9.738m49.051-6.554c-8.28.768-14.372 3.996-16.792 8.913-.807 1.612-1.172 3.15-1.306 5.281-.366 6.454 3.323 10.545 11.354 12.677 2.9.77 5.418 1.192 11.777 1.998 2.979.384 6.36.864 7.494 1.075 7.3 1.307 10.432 3.573 10.432 7.51 0 4.42-4.573 7.51-12.258 8.26-7.397.73-14.602-1.057-20.058-4.974-1.518-1.076-3.804-3.189-4.938-4.514l-.615-.75-1.19 1.057c-.654.595-1.922 1.748-2.825 2.593l-1.633 1.518.864 1.017c2.979 3.553 8.493 7.184 13.43 8.816 8.82 2.94 21.653 2.44 28.742-1.094 5.188-2.574 7.84-6.435 8.108-11.755.289-5.916-2.593-10.065-8.645-12.485-3.324-1.325-7.07-2.074-15.793-3.17-9.991-1.248-13.449-2.209-15.332-4.302-.98-1.094-1.365-2.247-1.25-3.803.193-2.516 1.615-4.457 4.208-5.705 4.458-2.132 12.47-2.401 18.637-.614 3.708 1.075 6.916 2.996 9.741 5.838l1.767 1.787 2.498-2.267c1.384-1.248 2.499-2.344 2.499-2.458 0-.384-2.44-3.093-3.825-4.245-4.264-3.573-9.817-5.59-17.213-6.224-2.633-.21-5.38-.21-7.878.02" fill="#218EC9"/><path d="M335.916 18.45c-10.817.923-19.444 7.203-22.748 16.557-1.153 3.266-1.441 5.187-1.441 9.355 0 4.052.269 5.781 1.325 8.95 2.306 6.876 7.935 12.696 14.794 15.348 4.15 1.593 7.185 2.112 12.392 2.093 8.224-.019 13.794-1.48 18.925-4.937 1.594-1.075 7.224-6.395 7.205-6.8-.02-.075-1.326-1.093-2.921-2.247l-2.9-2.093-.577.653c-2.152 2.497-3.21 3.553-4.572 4.591-3.997 2.997-8.339 4.284-14.68 4.302-4.84 0-8.376-.844-11.796-2.842-5.13-3.016-8.82-8.51-9.529-14.195l-.135-1.095h48.705l-.116-2.459c-.634-12.58-7.397-21.013-19.385-24.124-3.594-.942-8.877-1.383-12.546-1.057m8.07 6.819c7.204 1.171 12.814 5.647 14.908 11.909.307.902.557 1.805.557 1.997 0 .385-.288.385-19.962.385h-19.962l.385-1.306c.518-1.787 1.902-4.65 2.919-6.07 4.132-5.782 12.085-8.375 21.154-6.915m56.543-5.397c-5.782.557-11.277 2.958-16.676 7.261l-1.441 1.152-.057-3.534-.039-3.553h-7.686v49.556h7.686V36.026l1.69-1.537c5.418-4.955 10.818-7.625 16.35-8.086 2.076-.193 5.111.02 6.84.46 3.286.827 5.86 2.825 7.225 5.57 1.44 2.92 1.382 2.19 1.46 21.284l.077 17.037 3.784-.039 3.786-.058.057-16.326c.038-10.315-.019-17.114-.154-18.459-.25-2.804-.787-4.783-1.825-6.895-1.498-3.074-3.516-5.11-6.629-6.704-2.843-1.46-5.284-2.093-9.319-2.42-2.688-.212-2.727-.212-5.129.019" fill="#124B99"/><g transform="translate(463.354 18.808)"><mask id="h" fill="#fff"><use xlink:href="#g"/></mask><path d="M25.496.586c-5.246.366-9.703 1.441-13.258 3.207-2.862 1.441-4.994 3.113-7.434 5.86l-1.19 1.344.478.365c.25.192 1.556 1.095 2.883 1.998l2.42 1.651 1.325-1.382c2.537-2.632 5.38-4.4 8.915-5.513 6.456-2.036 15.678-1.768 20.636.614 3.631 1.748 5.302 4.207 5.302 7.818v1.287l-.807.114c-.462.059-3.323.366-6.397.692-9.876 1.037-14.89 1.806-19.79 2.978C8.32 24.077 2.767 28.073 1.077 34.2c-.48 1.71-.48 5.935-.019 7.683C2.48 47.26 6.474 50.68 13.065 52.178c6.32 1.422 14.121.942 21.058-1.267 3.515-1.133 7.377-2.92 10.259-4.725.576-.384 1-.558 1-.404.018.538.403 3.016.691 4.303l.308 1.403h3.822c2.94 0 3.824-.059 3.805-.25 0-.116-.136-.884-.308-1.671-.25-1.23-.326-3.996-.423-18.537-.135-16.768-.135-17.114-.557-18.593C50.933 6.003 45.054 2.084 35.43.894c-2.979-.385-7.09-.5-9.933-.308zm20.077 31.021v7.395l-3.093 1.536c-8.972 4.495-15.985 6.359-22.94 6.09-4.477-.174-7.282-1.153-9.434-3.285-1.613-1.614-2.075-2.805-2.075-5.398-.02-1.71.039-2.055.5-3.034.73-1.537 1.518-2.498 2.92-3.478 3.246-2.304 7.762-3.783 15.581-5.09 4.515-.748 15.448-2.054 17.541-2.112l1-.019v7.395z" fill="#124B99" mask="url(#h)"/></g><path fill="#218EC9" d="M29.758 46.552v24.201h7.685V22.35h-7.685z"/></g></svg>